PathFileType	4	(X/Y/Z)	Patient4_TMGait_0pt2_01_right_18.trc.trc
DataRate	CameraRate	NumFrames	NumMarkers	Units	OrigDataRate	OrigDataStartFrame	OrigNumFrames
41.543026706231	41.543026706231	5	33	mm	41.543026706231	1	       141
Frame#	Time	Sacral			L.Shoulder			Chest			R.Shoulder			Neck			R.ASIS			L.ASIS			R.Thigh.Superior			R.Thigh.Lateral			R.Thigh.Inferior			R.Patella			L.Thigh.Superior			L.Thigh.Lateral			L.Thigh.Inferior			L.Patella			L.Shank.Superior			L.Shank.Lateral			L.Shank.Inferior			R.Shank.Superior			R.Shank.Lateral			R.Shank.Inferior			R.Heel			R.Midfoot.Superior			R.Midfoot.Lateral			R.Toe			L.Heel			L.Midfoot.Lateral			L.Midfoot.Superior			L.Toe			L.Elbow			L.Wrist			R.Elbow			R.Wrist			
		X1	Y1	Z1	X2	Y2	Z2	X3	Y3	Z3	X4	Y4	Z4	X5	Y5	Z5	X6	Y6	Z6	X7	Y7	Z7	X8	Y8	Z8	X9	Y9	Z9	X10	Y10	Z10	X11	Y11	Z11	X12	Y12	Z12	X13	Y13	Z13	X14	Y14	Z14	X15	Y15	Z15	X16	Y16	Z16	X17	Y17	Z17	X18	Y18	Z18	X19	Y19	Z19	X20	Y20	Z20	X21	Y21	Z21	X22	Y22	Z22	X23	Y23	Z23	X24	Y24	Z24	X25	Y25	Z25	X26	Y26	Z26	X27	Y27	Z27	X28	Y28	Z28	X29	Y29	Z29	X30	Y30	Z30	X31	Y31	Z31	X32	Y32	Z32	X33	Y33	Z33	

1	40.180000000000	714.593440786348	1007.221508676294	439.570658226077	897.944911100303	1429.588824468658	256.327285085871	999.590216564158	1359.396511637692	417.480569048986	919.864106513486	1434.263401138214	591.344649056949	875.878518874024	1492.538671127416	413.060630842060	940.502457335580	936.203639969951	558.227151466870	929.864354109748	956.809393034501	285.100152176787	952.898916819732	724.487926702538	542.431427898070	857.270027758017	629.035727700794	611.919046149693	927.640561532084	558.533282466053	539.803045264654	909.656263869112	458.472211806568	560.311550003980	988.131944618884	753.610918379213	326.554197007234	915.886120442695	625.437391032866	265.335725646647	1005.593069966267	558.649996161412	334.392020338508	1011.321132607743	484.233939882315	342.821769298572	976.801397724116	410.928957537509	337.909400771161	881.101802562562	302.834679170352	285.794081501368	916.898393039826	189.653393359853	359.865978708077	839.635241632378	390.973214294520	570.937580850268	727.850368824472	338.305338469916	638.387636158303	725.134308909503	227.031917251331	588.706566541651	529.439738714534	127.211268077713	572.516006178552	707.001236404845	107.379581955049	603.007682268447	604.034716463897	82.867998402778	641.701017607045	796.054243826290	34.942678666931	624.570881749690	774.545969225930	40.388929059662	393.756870076500	853.015008306649	36.988795674585	318.080183116535	936.264635437228	96.506402362515	349.416410830795	1064.776870510007	40.010884800341	327.162666481913	853.086051118407	1085.661295671354	125.142597796469	875.997175165017	823.585052431091	126.694300797746	1020.098156246422	1102.593325295815	717.848425643410	1251.112795083993	979.230579642806	741.345317082198	
2	40.204071428571	713.000347603079	1004.818580822917	433.560265265839	899.487640394839	1427.940105000024	253.758960748483	999.019178160006	1356.994882782023	415.797093401673	917.236805067534	1430.977977777655	589.127370083578	875.834114601026	1490.431869021887	410.675039657010	938.284046609463	934.410409424447	554.344680685055	930.392147614187	955.090946322016	281.088459230394	958.697266065658	725.245667600102	538.381023187460	867.644581023817	627.252730888170	608.251618476161	940.745747717150	558.807583337414	536.218192193155	925.191183307732	456.899750488735	558.116250056188	988.710139011985	752.018074664102	323.832870622296	917.108510817358	623.337279041545	263.237653606279	1006.173632446973	556.998641437042	333.620280409999	1011.736890823832	482.348001515057	342.468639508295	976.222057591901	408.883165549335	337.459490869623	879.619928279200	301.729418573826	285.071888487404	913.430717867643	188.510182082809	359.819732071642	852.773044646214	390.241537874451	568.634580720174	738.859441772232	342.762719274445	635.745060035121	731.825763717743	231.639193240364	587.109337013898	533.556339149016	142.649673776511	570.431871778079	708.547366299264	112.124112307834	602.857767292017	604.278908364566	94.303768896716	640.228365621234	791.169745351621	33.874028702713	624.752646260249	769.735637579396	40.125152461812	393.663465406676	848.216252704626	36.837127384541	317.886336012112	931.396017676860	96.339626970995	349.475203526947	1060.018200827347	40.062821867869	327.142271214231	866.394165380579	1083.559321859927	120.807058267623	902.145881961042	823.707997356972	122.541799401412	1001.520168406865	1093.949797948998	712.430102491709	1215.981086929789	950.807739463919	738.407409007372	
3	40.228142857143	711.347096768360	1002.250026662417	427.442532770523	901.033082341274	1426.191754153128	251.200247457808	998.315761826630	1354.501038190974	414.190131646286	914.306250032601	1427.576060507941	586.918123757363	875.722167205291	1488.242728406011	408.283907064216	935.948501688050	932.580376947523	550.493490002715	931.026395958589	953.335581210027	277.054133804232	964.736912434446	726.365483274302	534.219804442490	878.599195120084	625.681554267267	604.465472854208	954.542088086297	559.548713454831	532.489911229311	941.615889653432	455.715494722126	555.721281178091	989.354986670887	750.350393516721	321.107417562717	918.387521433896	621.153548793661	261.153548518848	1006.768315091355	555.261556356286	332.921662259568	1012.169228081793	480.390407674041	342.223758286512	975.621249853971	406.761270017192	337.090070370705	878.086902412943	300.594392855549	284.384632633787	909.812749067914	187.327022228193	359.802211664750	866.733086238918	389.832060672188	566.106012197273	750.554324206234	347.661409451745	632.670981070811	739.181691111976	236.701853130565	585.113493257654	538.407403074933	158.841545290150	567.542338838740	710.583948049375	117.404905679179	602.279014605336	605.016739132405	106.555014739244	638.162698782135	786.468127847599	32.855294056645	624.882620471520	764.707110624346	39.875108002311	393.565626343261	843.201090501280	36.689611626346	317.692977203504	926.313350735494	96.164951264168	349.542579392794	1055.041198010488	40.102950942620	327.121246624669	880.365736827398	1081.605483930778	116.345174803936	930.134428825334	824.592412098134	118.463430219168	981.533599989829	1085.316777228246	706.773978284253	1178.025110597763	922.254705076223	734.740966684622	
4	40.252214285714	709.688108106123	999.626685494516	421.435392951613	902.544073571601	1424.433729824619	248.776669039304	997.465720971089	1352.044125396150	412.779969238763	911.068796634195	1424.224400725681	584.816514506329	875.521760177903	1486.083386110204	405.993449584972	933.536309056036	930.824244166389	546.864244329679	931.767487498488	951.634789445478	273.193433235917	970.798697555478	727.960074238478	530.105029172619	889.800765037836	624.513495485529	600.698668471717	968.596092891380	560.922943127865	528.741143311096	958.464835007642	455.165572499912	553.177012564527	990.030131649595	748.664272469756	318.512614340511	919.635258668566	618.981621144102	259.182833476993	1007.283472849583	553.499024762848	332.356631324577	1012.518744756277	478.439703356277	342.134123641045	974.940917753777	404.653739645906	336.839018919793	876.489281583011	299.480789847723	283.769286756955	906.108124510347	186.155463530221	359.818636175782	881.182207108154	389.901733628136	563.399135546734	762.687029161511	352.858841300224	629.179605784075	747.229203035012	242.056004940278	582.689227389387	544.172224737675	174.972810241284	563.758873870107	713.439846356113	123.062690535706	601.163792474711	606.631815441077	119.073927231572	635.430039290003	782.655965267459	31.995170137666	624.914982633397	759.577120622431	39.654806460019	393.464318857933	838.087147320306	36.553752021288	317.508184603860	921.137966430570	95.989640395635	349.614734104395	1049.961111395038	40.126258659087	327.100221921723	894.675549296525	1080.011522609045	111.918171265349	959.475962778695	826.658307679097	114.706062050371	960.432455610202	1077.194911787122	701.042973282449	1137.815473193532	894.938421096395	730.223920597265	
5	40.276285714286	708.072310380905	997.091538391155	415.709983972177	904.011623489409	1422.781971108331	246.595327375746	996.466017257581	1349.774646777753	411.674671311621	907.520695470189	1421.110064960731	582.901346014400	875.218434087160	1484.083988088658	403.890574163104	931.078375412978	929.269137306137	543.617412009631	932.610860057726	950.091018766696	269.682472383914	976.656513205527	730.122481764289	526.180368307330	900.895112844251	623.922545251781	597.077312599440	982.456632929146	563.060626275644	525.088162816999	975.257316850924	455.465956591074	550.547883938410	990.683017065800	747.017145621959	316.164067787158	920.732709752365	616.924811013968	257.406026768154	1007.586666019330	551.773242477392	331.966707773255	1012.638694189259	476.577228270962	342.226871596923	974.077354059137	402.656331763816	336.725667105352	874.772257778710	298.439757642515	283.248711127557	902.345542874785	185.049649790524	359.867118505800	895.786404876268	390.579247692648	560.580780753489	775.023615275951	358.157266693119	625.331938456132	756.028169788720	247.469330375805	579.856244226632	551.046154129721	190.075005849370	559.104868614155	717.525177523710	128.856348817071	599.468725236431	609.575289267414	131.155260235219	632.036510097843	780.592999970672	31.412258524096	624.803456588453	754.432468227993	39.476395150675	393.359606147198	832.962823045633	36.435035116038	317.337967920543	915.961173843405	95.821207465573	349.685663808206	1044.864547546342	40.129884898711	327.079627407026	909.063118539875	1078.995878087038	107.669574711059	989.732417596608	830.342369593145	111.495002625253	938.475386764530	1070.075202515346	695.380978084673	1095.919294570287	870.088078245816	724.782494518092	
